<svg width="1140" height="512" fill="none" xmlns="http://www.w3.org/2000/svg"><path fill="#BCB4B2" d="M0 0h1140v512H0z"/><circle cx="570" cy="256" r="156" fill="#F5F5F5"/><path d="M694 256a124 124 0 1 1-248 0h248Z" fill="#B65B3E"/><path d="M717.5 205.08c.52 1.51 1.02 3.04 1.5 4.57V256h-1.5v-50.92ZM708.5 184.14c.51.98 1.01 1.97 1.5 2.96V256h-1.5v-71.86ZM699.5 168.99l1.5 2.27V256h-1.5v-87.01ZM690.5 156.92l1.5 1.85V256h-1.5v-99.08ZM681.5 146.9l1.5 1.55V256h-1.5V146.9ZM422 206.55c-.52 1.57-1.02 3.15-1.5 4.74V256h1.5v-49.45ZM429.5 188.13V256h1.5v-70.89c-.51 1-1.01 2-1.5 3.01ZM438.5 172.04V256h1.5v-86.26l-1.5 2.3ZM447.5 159.4V256h1.5v-98.47l-1.5 1.87ZM456.5 148.98V256h1.5V147.4l-1.5 1.58ZM465.5 140.17V256h1.5V138.84l-1.5 1.33ZM474.5 132.64V256h1.5V131.49l-1.5 1.15ZM483.5 126.16V256h1.5V125.17l-1.5.99ZM492.5 120.58V256h1.5V119.73l-1.5.85ZM501.5 115.8V256h1.5V115.08l-1.5.72ZM510.5 111.75V256h1.5V111.14l-1.5.6ZM519.5 108.36V256h1.5V107.85l-1.5.5ZM528.5 105.58V256h1.5V105.18l-1.5.4ZM537.5 103.39V256h1.5V103.08l-1.5.31ZM546.5 101.76V256h1.5V101.54l-1.5.22ZM555.5 100.67V256h1.5V100.53l-1.5.14ZM564.5 100.1V256h1.5V100.05l-1.5.05ZM573.5 100.04V256h1.5V100.08l-1.5-.04ZM582.5 100.5V256h1.5V100.62l-1.5-.13ZM591.5 101.47V256h1.5V101.68l-1.5-.21ZM600.5 102.98V256h1.5V103.28l-1.5-.3ZM609.5 105.04V256h1.5V105.44l-1.5-.4ZM618.5 107.69V256h1.5V108.19l-1.5-.5ZM627.5 110.94V256h1.5V111.54l-1.5-.6ZM636.5 114.84V256h1.5V115.56l-1.5-.72ZM645.5 119.45V256h1.5V120.3l-1.5-.85ZM654.5 124.84V256h1.5V125.82l-1.5-.97ZM663.5 131.11V256h1.5V132.25l-1.5-1.14ZM672.5 138.4V256h1.5V139.72l-1.5-1.32Z" fill="#000"/><path fill-rule="evenodd" clip-rule="evenodd" d="M40 432a8 8 0 0 0 0 16h8v-16h-8Zm-8 24a8 8 0 0 1 8-8h8v24a8 8 0 1 1-8.07-8 8 8 0 0 1-7.93-8Zm16-24h8a8 8 0 0 1 0 16h-8v-16Zm8 32a8 8 0 1 0 0-16 8 8 0 0 0 0 16Z" fill="#141414"/></svg>