<svg width="1140" height="512" fill="none" xmlns="http://www.w3.org/2000/svg"><path fill="#E93C50" d="M0 0h1140v512H0z"/><path fill="#FDE561" d="M884 0h256v512H884z"/><path fill="#7BCEF0" d="M884 0h256v257H884z"/><path d="M884 257V0h1.5v257H884ZM897.5 257V0h1.5v257h-1.5ZM911 0v257h1.6V0H911ZM924.6 257V0h1.5v257h-1.5ZM938.1 0v257h1.5V0h-1.5ZM951.6 257V0h1.5v257h-1.5ZM965.2 0v257h1.5V0h-1.5ZM978.7 257V0h1.5v257h-1.5ZM992.2 0v257h1.5V0h-1.5ZM1005.8 257V0h1.5v257h-1.5ZM1019.3 0v257h1.5V0h-1.5ZM1032.8 257V0h1.5v257h-1.5ZM1046.3 0v257h1.5V0h-1.5ZM1059.9 257V0h1.5v257h-1.5ZM1073.4 0v257h1.5V0h-1.5ZM1087 257V0h1.4v257h-1.5ZM1100.4 0v257h1.5V0h-1.5ZM1114 257V0h1.5v257h-1.5ZM1127.5 0v257h1.5V0h-1.5Z" fill="#040404"/><path fill-rule="evenodd" clip-rule="evenodd" d="M1026.6 384a14.6 14.6 0 1 1-29.2 0 14.6 14.6 0 0 1 29.2 0Zm-1.5 0a13.1 13.1 0 1 1-26.2 0 13.1 13.1 0 0 1 26.2 0Z" fill="#040404"/><path fill-rule="evenodd" clip-rule="evenodd" d="M1012 409a25 25 0 1 0 0-50 25 25 0 0 0 0 50Zm0-1.6a23.4 23.4 0 1 0 0-46.8 23.4 23.4 0 0 0 0 46.8Z" fill="#040404"/><path fill-rule="evenodd" clip-rule="evenodd" d="M1047.2 384a35.2 35.2 0 1 1-70.4 0 35.2 35.2 0 0 1 70.4 0Zm-1.5 0a33.7 33.7 0 1 1-67.4 0 33.7 33.7 0 0 1 67.4 0Z" fill="#040404"/><path fill-rule="evenodd" clip-rule="evenodd" d="M1012 429.5a45.5 45.5 0 1 0 0-91 45.5 45.5 0 0 0 0 91Zm0-1.5a44 44 0 1 0 0-88 44 44 0 0 0 0 88Z" fill="#040404"/><path fill-rule="evenodd" clip-rule="evenodd" d="M1067.8 384a55.8 55.8 0 1 1-111.6 0 55.8 55.8 0 0 1 111.6 0Zm-1.5 0a54.3 54.3 0 1 1-108.6 0 54.3 54.3 0 0 1 108.6 0Z" fill="#040404"/><path fill-rule="evenodd" clip-rule="evenodd" d="M1012 450.1a66.2 66.2 0 1 0 0-132.3 66.2 66.2 0 0 0 0 132.3Zm0-1.5a64.7 64.7 0 1 0 0-129.3 64.7 64.7 0 0 0 0 129.3Z" fill="#040404"/><path fill-rule="evenodd" clip-rule="evenodd" d="M1088.5 384a76.5 76.5 0 1 1-153 0 76.5 76.5 0 0 1 153 0Zm-1.5 0a75 75 0 1 1-150 0 75 75 0 0 1 150 0Z" fill="#040404"/><path fill-rule="evenodd" clip-rule="evenodd" d="M1012 470.8a86.8 86.8 0 1 0 0-173.6 86.8 86.8 0 0 0 0 173.6Zm0-1.5a85.3 85.3 0 1 0 0-170.6 85.3 85.3 0 0 0 0 170.6Z" fill="#040404"/><path fill-rule="evenodd" clip-rule="evenodd" d="M1109 384a97 97 0 1 1-194 0 97 97 0 0 1 194 0Zm-1.4 0a95.6 95.6 0 1 1-191.2 0 95.6 95.6 0 0 1 191.2 0Z" fill="#040404"/><path fill-rule="evenodd" clip-rule="evenodd" d="M1012 491.4a107.4 107.4 0 1 0 0-214.8 107.4 107.4 0 0 0 0 214.8Zm0-1.5a105.9 105.9 0 1 0 0-211.8 105.9 105.9 0 0 0 0 211.8Z" fill="#040404"/><path fill-rule="evenodd" clip-rule="evenodd" d="M1129.7 384a117.7 117.7 0 1 1-235.4 0 117.7 117.7 0 0 1 235.4 0Zm-1.5 0a116.2 116.2 0 1 1-232.4 0 116.2 116.2 0 0 1 232.4 0Z" fill="#040404"/><path fill-rule="evenodd" clip-rule="evenodd" d="M1140 384a128 128 0 1 1-256 0 128 128 0 0 1 256 0Zm-1.5 0a126.5 126.5 0 1 1-253 0 126.5 126.5 0 0 1 253 0Z" fill="#040404"/><path d="m0 48.8 852.8 201.5L0 3.8V2.2l882.1 255c.4 0 .7.4.7.8v1c0 .6-.4.8-.9.8L0 509.8v-1.5l852.2-241.6L0 464.2v-1.6l851-197.2-851 155v-1.5l848-154.5L0 380.7V379l853-116.9L0 335.4v-1.5l845.7-72.5L0 297.7v-1.5l850-36.5-850-2v-1.4l869.5 2L0 221.7v-1.5l850.4 35.6L0 181.2v-1.5l850.7 74.7L0 138v-1.6L851 253 0 95v-1.5l851.7 158L0 50.4v-1.6Z" fill="#040404"/><path d="M40 432a8 8 0 0 0 0 16h8v-16h-8ZM32 456a8 8 0 0 1 8-8h8v24a8 8 0 1 1-8-8 8 8 0 0 1-8-8ZM48 432h8a8 8 0 0 1 0 16h-8v-16Z" fill="#141414"/><path d="M56 464a8 8 0 1 0 0-16 8 8 0 0 0 0 16Z" fill="#141414"/></svg>