<svg width="136" height="38" viewBox="0 0 136 38" fill="none" xmlns="http://www.w3.org/2000/svg">
<g clip-path="url(#clip0_484_22532)">
<path d="M99.7333 28.4139H94.5488L97.7916 8.36328H102.976L99.7333 28.4139Z" fill="white"/>
<path d="M118.527 8.85363C117.505 8.44794 115.883 8 113.877 8C108.758 8 105.152 10.7302 105.13 14.6334C105.088 17.5133 107.711 19.1128 109.674 20.073C111.68 21.0543 112.361 21.6947 112.361 22.5693C112.341 23.9126 110.741 24.5317 109.248 24.5317C107.178 24.5317 106.069 24.2125 104.384 23.4652L103.701 23.1448L102.975 27.6457C104.191 28.1997 106.432 28.6913 108.758 28.7129C114.197 28.7129 117.739 26.0249 117.781 21.8654C117.802 19.5829 116.416 17.8339 113.429 16.4048C111.616 15.4874 110.505 14.8688 110.505 13.9301C110.527 13.0767 111.445 12.2027 113.492 12.2027C115.177 12.1599 116.415 12.565 117.353 12.9704L117.822 13.1833L118.527 8.85363Z" fill="white"/>
<path d="M125.418 21.3107C125.845 20.1588 127.488 15.7007 127.488 15.7007C127.466 15.7435 127.914 14.5275 128.17 13.7811L128.532 15.5087C128.532 15.5087 129.514 20.3082 129.727 21.3107C128.917 21.3107 126.442 21.3107 125.418 21.3107ZM131.817 8.36328H127.807C126.571 8.36328 125.631 8.7256 125.098 10.0269L117.397 28.4136H122.837C122.837 28.4136 123.732 25.9389 123.925 25.4059C124.521 25.4059 129.813 25.4059 130.581 25.4059C130.73 26.1098 131.2 28.4136 131.2 28.4136H136L131.817 8.36328Z" fill="white"/>
<path d="M90.2185 8.36328L85.1412 22.0359L84.5864 19.2629C83.6477 16.0633 80.7038 12.5869 77.4186 10.8584L82.0692 28.3926H87.5516L95.7007 8.36328H90.2185Z" fill="white"/>
<path d="M80.4266 8.36328H72.0853L72 8.76841C78.5067 10.4323 82.816 14.443 84.5865 19.2638L82.7732 10.0487C82.4746 8.76813 81.5572 8.40552 80.4266 8.36328Z" fill="white"/>
</g>
<g clip-path="url(#clip1_484_22532)">
<path d="M8.69978 37.1963V34.7223C8.69978 33.776 8.12332 33.1563 7.13373 33.1563C6.63893 33.1563 6.1009 33.3196 5.731 33.8576C5.44277 33.4061 5.02964 33.1563 4.40995 33.1563C3.99682 33.1563 3.58369 33.2812 3.25703 33.7327V33.2379H2.39233V37.1963H3.25703V35.0105C3.25703 34.3092 3.62692 33.9777 4.20338 33.9777C4.77984 33.9777 5.06807 34.3476 5.06807 35.0105V37.1963H5.93277V35.0105C5.93277 34.3092 6.3459 33.9777 6.87912 33.9777C7.45558 33.9777 7.74381 34.3476 7.74381 35.0105V37.1963H8.69978ZM21.526 33.2379H20.1233V32.0418H19.2586V33.2379H18.4756V34.021H19.2586V35.8368C19.2586 36.7447 19.6285 37.278 20.6181 37.278C20.988 37.278 21.4011 37.1531 21.6894 36.9897L21.4396 36.2451C21.1898 36.4085 20.9015 36.4517 20.695 36.4517C20.2818 36.4517 20.1185 36.2019 20.1185 35.7936V34.021H21.5212V33.2379H21.526ZM28.8663 33.1515C28.3715 33.1515 28.0401 33.4013 27.8335 33.7279V33.2331H26.9688V37.1915H27.8335V34.9625C27.8335 34.3044 28.1217 33.9297 28.6597 33.9297C28.8231 33.9297 29.0296 33.9729 29.1978 34.0113L29.4476 33.1851C29.2746 33.1515 29.0296 33.1515 28.8663 33.1515ZM17.7742 33.5646C17.3611 33.2764 16.7846 33.1515 16.165 33.1515C15.1754 33.1515 14.5172 33.6463 14.5172 34.4293C14.5172 35.0874 15.012 35.4621 15.8767 35.5822L16.2899 35.6254C16.7414 35.7071 16.9912 35.832 16.9912 36.0386C16.9912 36.3268 16.6597 36.5334 16.0833 36.5334C15.5068 36.5334 15.0505 36.3268 14.7622 36.1202L14.3491 36.7784C14.8007 37.1098 15.4204 37.2732 16.0401 37.2732C17.193 37.2732 17.8559 36.7351 17.8559 35.9953C17.8559 35.294 17.3179 34.9241 16.4964 34.7992L16.0833 34.7559C15.7134 34.7127 15.4252 34.631 15.4252 34.386C15.4252 34.0978 15.7134 33.9345 16.1698 33.9345C16.6646 33.9345 17.1593 34.1411 17.4091 34.266L17.7742 33.5646ZM40.7798 33.1515C40.285 33.1515 39.9536 33.4013 39.747 33.7279V33.2331H38.8823V37.1915H39.747V34.9625C39.747 34.3044 40.0352 33.9297 40.5733 33.9297C40.7366 33.9297 40.9432 33.9729 41.1113 34.0113L41.3611 33.1947C41.193 33.1515 40.948 33.1515 40.7798 33.1515ZM29.731 35.2171C29.731 36.4133 30.5573 37.278 31.8351 37.278C32.4116 37.278 32.8247 37.1531 33.2378 36.8264L32.8247 36.125C32.4932 36.3748 32.1666 36.4949 31.7919 36.4949C31.0905 36.4949 30.5957 36.0001 30.5957 35.2171C30.5957 34.4725 31.0905 33.9777 31.7919 33.9393C32.1617 33.9393 32.4932 34.0642 32.8247 34.3092L33.2378 33.6078C32.8247 33.2764 32.4116 33.1563 31.8351 33.1563C30.5573 33.1515 29.731 34.021 29.731 35.2171ZM37.7294 35.2171V33.2379H36.8647V33.7327C36.5765 33.3628 36.1634 33.1563 35.6253 33.1563C34.5108 33.1563 33.6461 34.021 33.6461 35.2171C33.6461 36.4133 34.5108 37.278 35.6253 37.278C36.2018 37.278 36.6149 37.0714 36.8647 36.7015V37.1963H37.7294V35.2171ZM34.5541 35.2171C34.5541 34.5157 35.0056 33.9393 35.7502 33.9393C36.4516 33.9393 36.9464 34.4773 36.9464 35.2171C36.9464 35.9185 36.4516 36.4949 35.7502 36.4949C35.0104 36.4517 34.5541 35.9137 34.5541 35.2171ZM24.2066 33.1515C23.0537 33.1515 22.2274 33.9777 22.2274 35.2123C22.2274 36.4517 23.0537 37.2732 24.2498 37.2732C24.8263 37.2732 25.4027 37.1098 25.8591 36.7351L25.446 36.1154C25.1145 36.3652 24.7014 36.5286 24.2931 36.5286C23.755 36.5286 23.2218 36.2788 23.0969 35.5822H26.0224C26.0224 35.4573 26.0224 35.3756 26.0224 35.2507C26.0609 33.9777 25.3163 33.1515 24.2066 33.1515ZM24.2066 33.8961C24.7446 33.8961 25.1145 34.2275 25.1962 34.8424H23.1353C23.217 34.3092 23.5869 33.8961 24.2066 33.8961ZM45.6894 35.2171V31.6719H44.8247V33.7327C44.5364 33.3628 44.1233 33.1563 43.5853 33.1563C42.4708 33.1563 41.6061 34.021 41.6061 35.2171C41.6061 36.4133 42.4708 37.278 43.5853 37.278C44.1617 37.278 44.5749 37.0714 44.8247 36.7015V37.1963H45.6894V35.2171ZM42.514 35.2171C42.514 34.5157 42.9656 33.9393 43.7102 33.9393C44.4116 33.9393 44.9063 34.4773 44.9063 35.2171C44.9063 35.9185 44.4116 36.4949 43.7102 36.4949C42.9656 36.4517 42.514 35.9137 42.514 35.2171ZM13.5661 35.2171V33.2379H12.7014V33.7327C12.4132 33.3628 12 33.1563 11.462 33.1563C10.3475 33.1563 9.48281 34.021 9.48281 35.2171C9.48281 36.4133 10.3475 37.278 11.462 37.278C12.0385 37.278 12.4516 37.0714 12.7014 36.7015V37.1963H13.5661V35.2171ZM10.3523 35.2171C10.3523 34.5157 10.8039 33.9393 11.5485 33.9393C12.2498 33.9393 12.7446 34.4773 12.7446 35.2171C12.7446 35.9185 12.2498 36.4949 11.5485 36.4949C10.8039 36.4517 10.3523 35.9137 10.3523 35.2171Z" fill="white"/>
<path d="M30.4756 3.17578H17.486V26.5128H30.4756V3.17578Z" fill="#FF5A00"/>
<path d="M18.3507 14.8439C18.3507 10.1025 20.5797 5.89432 24 3.17534C21.4828 1.19616 18.3074 0 14.8439 0C6.63891 0 0 6.63891 0 14.8439C0 23.0488 6.63891 29.6878 14.8439 29.6878C18.3074 29.6878 21.4828 28.4916 24 26.5124C20.5749 23.8319 18.3507 19.5853 18.3507 14.8439Z" fill="#EB001B"/>
<path d="M48 14.8439C48 23.0488 41.3611 29.6878 33.1561 29.6878C29.6926 29.6878 26.5172 28.4916 24 26.5124C27.4636 23.7886 29.6493 19.5853 29.6493 14.8439C29.6493 10.1025 27.4203 5.89432 24 3.17534C26.5124 1.19616 29.6877 0 33.1513 0C41.3611 0 48 6.68215 48 14.8439Z" fill="#F79E1B"/>
</g>
<defs>
<clipPath id="clip0_484_22532">
<rect width="64" height="20.7129" fill="white" transform="translate(72 8)"/>
</clipPath>
<clipPath id="clip1_484_22532">
<rect width="48" height="37.2778" fill="white"/>
</clipPath>
</defs>
</svg>
