<svg width="1140" height="512" fill="none" xmlns="http://www.w3.org/2000/svg"><path fill="#123B6F" d="M0 0h1140v512H0z"/><path fill="#B9CDD0" d="M0 0h1140v256H0z"/><circle cx="570" cy="256" r="128" fill="#3A6896"/><path d="M442 256c0 10 3 21 10 30 6 10 16 18 27 26 12 7 26 13 42 17a199 199 0 0 0 98 0c16-4 30-10 42-17 11-8 21-16 27-26 7-9 10-20 10-30H442Z" fill="#D5E6E9"/><path d="M40 432a8 8 0 0 0 0 16h8v-16h-8ZM32 456c0-4 4-8 8-8h8v24a8 8 0 1 1-8-8c-4 0-8-4-8-8ZM48 432h8a8 8 0 0 1 0 16h-8v-16Z" fill="#C5D9DC"/><path d="M56 464a8 8 0 1 0 0-16 8 8 0 0 0 0 16Z" fill="#C5D9DC"/></svg>