<svg width="1140" height="512" fill="none" xmlns="http://www.w3.org/2000/svg"><g clip-path="url(#a)"><path fill="#DEE0D8" d="M0 0h1140v512H0z"/><path fill="#DEE0D8" d="M0 1h1140v512H0z"/><path fill="#42A571" d="M699.5 439h441v74h-441z"/><path fill="#EF474D" d="M228.5 189h203v198h-203z"/><path fill="#42A571" d="M98 1h26v26H98zM668 246h31v31h-31z"/><path fill="#4255A5" d="M431 388h52v50h-52z"/><path fill="#DEE0D8" d="M719.5 459H1121v34H719.5z"/><path fill="#EEBF19" d="M0 1h98.3v187.9H0z"/><path fill="#DEE0D8" d="M20 20.9h58.4v148H20z"/><path fill-rule="evenodd" clip-rule="evenodd" d="M1140 388.3H0v-1.6h1140v1.6ZM1140 439.3H0v-1.6h1140v1.6ZM1140 189.3H0v-1.6h1140v1.6Z" fill="#B7B8B2"/><path fill-rule="evenodd" clip-rule="evenodd" d="M227.3 513V1h1.4v512h-1.4ZM698.8 513V1h1.5v512h-1.5ZM881.8 513V1h1.5v512h-1.5Z" fill="#B7B8B2"/><path fill-rule="evenodd" clip-rule="evenodd" d="M1140 278.3H482.5v-1.6H1140v1.6ZM1140 246.3H482.5v-1.6H1140v1.6ZM1140 136.3H0v-1.6h1140v1.6Z" fill="#B7B8B2"/><path fill-rule="evenodd" clip-rule="evenodd" d="M481.8 513V1h1.4v512h-1.4ZM430.3 513V1h1.4v512h-1.4Z" fill="#B7B8B2"/><path d="M40 432a8 8 0 0 0 0 16h8v-16h-8ZM32 456a8 8 0 0 1 8-8h8v24a8 8 0 1 1-8-8 8 8 0 0 1-8-8ZM48 432h8a8 8 0 0 1 0 16h-8v-16Z" fill="#31322E"/><path d="M56 464a8 8 0 1 0 0-16 8 8 0 0 0 0 16Z" fill="#31322E"/></g><defs><clipPath id="a"><path fill="#fff" d="M0 0h1140v512H0z"/></clipPath></defs></svg>