<svg width="86" height="37" fill="none" xmlns="http://www.w3.org/2000/svg"><path fill-rule="evenodd" clip-rule="evenodd" d="M61.79 8V5.42h1.24c1.79 0 3-.7 3-2.4 0-1.63-1.12-2.3-3-2.3h-2.15V8h.9Zm1.3-3.44h-1.3V1.6h1.23c1.25 0 2.05.36 2.05 1.44 0 1.11-.83 1.51-1.96 1.53l-.01-.01ZM70.88 8V5.2h1.57L74.04 8h1.08l-1.66-2.94c1.03-.28 1.66-.94 1.66-2.04 0-1.6-1.21-2.3-3-2.3h-2.16V8h.92Zm0-3.65V1.59h1.22c1.17 0 2.04.4 2.04 1.43 0 .94-.86 1.32-1.95 1.33h-1.31Zm11.4 3.76c2.04 0 3.54-1.46 3.54-3.8 0-2.35-1.5-3.69-3.54-3.69-2.05 0-3.55 1.34-3.55 3.68 0 2.35 1.5 3.8 3.55 3.8v.01Zm0-.8c-1.41 0-2.58-1.22-2.58-3 0-1.79 1.17-2.88 2.58-2.88 1.4 0 2.57 1.1 2.57 2.87 0 1.79-1.17 3-2.57 3v.01Z" fill="#000"/><path d="M63.75 21.93c.34.32.82.48 1.42.48s1.05-.16 1.38-.48c.34-.33.51-.73.51-1.22 0-.5-.17-.9-.51-1.23a1.88 1.88 0 0 0-1.38-.48 2 2 0 0 0-1.42.48c-.33.33-.5.73-.5 1.23 0 .49.17.9.5 1.22Zm6.67 10.06h-3.25V26.7c0-1.04-.25-1.8-.74-2.26-.48-.46-1.33-.7-2.53-.7-.88 0-1.64.14-2.29.4v2.74a3.1 3.1 0 0 1 1.21-.23c.46 0 .77.1.95.3.2.18.3.5.3.97v4.06h-3.8v2.74h10.15v-2.74ZM4.07 34.73v-7.7H1v-2.47h3.76v-.32a3.53 3.53 0 0 1-2-.57 1.77 1.77 0 0 1-.69-1.47c0-.34.09-.66.27-.97.19-.3.52-.58.98-.82a7.2 7.2 0 0 1 1.94-.57 17.58 17.58 0 0 1 6.09.09c.8.2 1.46.47 1.95.84.51.35.87.77 1.1 1.26.23.48.34 1 .34 1.58v.06H11.5v-.08c0-.21-.05-.4-.14-.59-.1-.18-.27-.34-.52-.46a3.11 3.11 0 0 0-.96-.34 9.58 9.58 0 0 0-3.09-.02 3.2 3.2 0 0 0-.97.3 1 1 0 0 0-.49.4.9.9 0 0 0-.12.46c0 .15.03.3.1.42a2.02 2.02 0 0 0 .62.57l.37.19h6.5v2.5H7.32v7.7H4.07Zm11.16 0v-10.7h3.25l-.45 2.95h.35a4.3 4.3 0 0 1 1.54-2.36 4.72 4.72 0 0 1 2.94-.86c1.63 0 2.89.46 3.77 1.39.87.92 1.31 2.33 1.31 4.2v.43h-3.29v-.15c0-.94-.27-1.67-.8-2.19-.54-.53-1.3-.8-2.3-.8a3 3 0 0 0-2.27.84c-.53.55-.8 1.39-.8 2.5v4.75h-3.25Zm17.93-.13c.69.27 1.46.4 2.3.4 1.34 0 2.4-.3 3.22-.9a4.6 4.6 0 0 0 1.66-2.57h.33l-.47 3.2h3.23v-10.7H40.2v4.4c0 1.24-.31 2.18-.93 2.82-.61.65-1.48.97-2.59.97-1.1 0-1.95-.32-2.57-.97-.62-.64-.93-1.58-.93-2.82v-4.4h-3.25v5.16c0 .91.13 1.73.37 2.44a5.2 5.2 0 0 0 1.11 1.83c.48.5 1.07.87 1.75 1.14Zm19.32.4c-1.24 0-2.3-.1-3.16-.32a6.47 6.47 0 0 1-2.08-.84c-.52-.36-.9-.78-1.13-1.26a3.64 3.64 0 0 1-.35-1.58v-.17h3.29v.13c0 .22.05.44.16.65.11.2.3.37.56.53.26.15.6.28 1.05.38.44.08 1 .12 1.66.12.72 0 1.3-.03 1.73-.1.45-.07.8-.16 1.05-.28.25-.1.41-.24.5-.38.09-.15.14-.3.14-.46a.7.7 0 0 0-.43-.67 3.55 3.55 0 0 0-1.16-.34 14 14 0 0 0-1.6-.13l-1.83-.08c-.63-.04-1.25-.11-1.85-.21a6.74 6.74 0 0 1-1.6-.46 3.06 3.06 0 0 1-1.14-.9 2.37 2.37 0 0 1-.43-1.48c0-.45.1-.88.3-1.29.23-.4.59-.76 1.1-1.07.52-.32 1.2-.58 2.03-.76.85-.18 1.92-.27 3.2-.27 1.17 0 2.17.11 3 .33.82.22 1.5.51 2.01.89a3.69 3.69 0 0 1 1.59 2.82h-3.3a1.32 1.32 0 0 0-.2-.63c-.11-.21-.3-.4-.56-.55a3.02 3.02 0 0 0-1-.36 11.03 11.03 0 0 0-3.23-.04c-.43.07-.76.16-1.01.27-.25.12-.42.25-.52.4a.86.86 0 0 0-.12.45c0 .28.14.49.43.63.3.14.67.24 1.13.31.48.06 1.02.1 1.6.11.61.01 1.23.04 1.86.08.63.03 1.24.1 1.83.2.6.1 1.14.25 1.6.48.49.22.87.53 1.16.92.29.38.43.88.43 1.5 0 .48-.11.92-.33 1.35-.2.4-.57.76-1.09 1.07-.5.3-1.2.55-2.06.74-.85.18-1.92.27-3.23.27Z" fill="#000"/><path fill-rule="evenodd" clip-rule="evenodd" d="M76.23 35c-.87 0-1.6-.08-2.22-.25a4.3 4.3 0 0 1-1.49-.66 2.66 2.66 0 0 1-.84-1.03 3.22 3.22 0 0 1 0-2.57c.18-.39.46-.73.84-1 .39-.3.88-.53 1.49-.68a8.53 8.53 0 0 1 2.22-.25c.66 0 1.25.03 1.77.1a8.77 8.77 0 0 1 2.53.7c.34.15.67.31.99.48v-.78c0-.8-.3-1.46-.91-1.98-.59-.53-1.5-.8-2.76-.8-.57 0-1.07.05-1.48.15-.41.1-.76.23-1.05.4-.27.17-.5.36-.66.57-.15.21-.26.43-.32.65H71.1a4.19 4.19 0 0 1 1.79-3.01 6.4 6.4 0 0 1 2.05-.92c.84-.24 1.82-.36 2.94-.36 1.16 0 2.16.13 3 .4a5.8 5.8 0 0 1 2.13 1.11c.56.48.98 1.06 1.25 1.73.28.66.41 1.39.41 2.19v2.27c0 .54.25.8.74.8.21 0 .4-.02.58-.08v2.59c-.23.07-.47.12-.7.17-.22.04-.47.06-.74.06-.86 0-1.5-.2-1.93-.59-.42-.4-.62-.9-.62-1.5v-.08h-.35v.06c0 .24-.11.49-.33.74-.2.25-.53.49-.97.7-.44.2-1 .35-1.68.48-.69.13-1.5.19-2.45.19Zm1.21-2.25a9.3 9.3 0 0 0 4.08-.87v-.59c-.57-.22-1.16-.4-1.8-.56a8.96 8.96 0 0 0-2.28-.26c-.56 0-1.02.03-1.38.09-.35.05-.63.14-.84.25-.2.1-.33.22-.41.36a1.04 1.04 0 0 0 0 .9c.08.13.22.25.41.36.2.1.49.18.84.23.36.06.82.09 1.38.09Z" fill="#000"/><path d="M48 3H0v2h48V3Z" fill="#000"/></svg>